<svg xmlns="http://www.w3.org/2000/svg" width="4in" height="4in" viewBox="0 0 288 288"><path d="M210.78,39.3l-.57-.12-.55-.12.55.12Z" transform="translate(-36 -36)" fill="#00aeef"/><path d="M208.88,38.9l-.42-.09-.82-.16.82.17Z" transform="translate(-36 -36)" fill="#00aeef"/><path d="M248.64,53.38l-.54-.29-.39-.21.39.21Z" transform="translate(-36 -36)" fill="#00aeef"/><path d="M244,51l-.55-.27-.4-.2.4.2Z" transform="translate(-36 -36)" fill="#00aeef"/><path d="M298.45,98.09l-.44-.63c-.12-.17-.24-.33-.35-.5l.36.51Z" transform="translate(-36 -36)" fill="#00aeef"/><path d="M278.2,74.68l-.6-.55-.62-.57.63.57Z" transform="translate(-36 -36)" fill="#00aeef"/><path d="M321.71,154.29l-.12-.67c0-.25-.09-.5-.14-.75.05.26.09.52.14.77Z" transform="translate(-36 -36)" fill="#00aeef"/><path d="M322,156c0-.19-.06-.39-.1-.58l0-.22a2,2,0,0,0,0,.24Z" transform="translate(-36 -36)" fill="#00aeef"/><path d="M321.38,152.54c0-.22-.08-.45-.13-.67s-.07-.35-.1-.53c0,.18.07.36.1.55S321.34,152.32,321.38,152.54Z" transform="translate(-36 -36)" fill="#00aeef"/><path d="M316.73,134.71l.24.72-.24-.73-.27-.82c-.09-.26-.18-.52-.28-.79.1.27.19.53.28.79Z" transform="translate(-36 -36)" fill="#00aeef"/><path d="M316.16,133l-.13-.37c0,.12.09.25.13.38Z" transform="translate(-36 -36)" fill="#00aeef"/><path d="M314.53,128.54l-.18-.46-.15-.39c.05.14.11.27.16.41S314.47,128.39,314.53,128.54Z" transform="translate(-36 -36)" fill="#00aeef"/><path d="M91.1,66.71c-.4.31-.79.62-1.17.94.83-.68,1.68-1.34,2.53-2Z" transform="translate(-36 -36)" fill="#00aeef"/><path d="M180.72,36h0Z" transform="translate(-36 -36)" fill="#00aeef"/><path d="M256.55,58l-.22-.14-.16-.1.16.1Z" transform="translate(-36 -36)" fill="#00aeef"/><path d="M266.78,65.08l-.47-.36-.61-.45.61.45Z" transform="translate(-36 -36)" fill="#00aeef"/><path d="M263.29,62.52l-.45-.32-.73-.51.73.51Z" transform="translate(-36 -36)" fill="#00aeef"/><path d="M272.44,69.58h0l-.22-.18.22.18Z" transform="translate(-36 -36)" fill="#00aeef"/><path d="M279.08,75.51l-.22-.21-.5-.47.51.48Z" transform="translate(-36 -36)" fill="#00aeef"/><path d="M276.15,72.81l-.48-.44h0Z" transform="translate(-36 -36)" fill="#00aeef"/><path d="M234.66,46.74h0l.27.11Z" transform="translate(-36 -36)" fill="#00aeef"/><path d="M292.68,90.33l-.38-.48-.28-.33.28.33Z" transform="translate(-36 -36)" fill="#00aeef"/><path d="M249.63,53.92l.29.17-.3-.17-.78-.43-.2-.11.19.11Z" transform="translate(-36 -36)" fill="#00aeef"/><path d="M252.64,55.64l0,0,0,0Z" transform="translate(-36 -36)" fill="#00aeef"/><path d="M241.88,49.94h0l-.81-.39-.15-.06.14.06Z" transform="translate(-36 -36)" fill="#00aeef"/><path d="M240.05,49.08l-.57-.26-.22-.1.22.1Z" transform="translate(-36 -36)" fill="#00aeef"/><path d="M265.17,63.88l-.25-.18-.44-.32.44.32Z" transform="translate(-36 -36)" fill="#00aeef"/><path d="M299,98.93l0-.05-.45-.66.46.67Z" transform="translate(-36 -36)" fill="#00aeef"/><path d="M302.3,104h0l.11.17Z" transform="translate(-36 -36)" fill="#00aeef"/><path d="M303.52,105.94l-.31-.51c-.08-.14-.17-.28-.26-.42.09.14.18.28.26.42Z" transform="translate(-36 -36)" fill="#00aeef"/><path d="M275.49,84.51A134.65,134.65,0,0,0,183.11,45c-1,0-2.07,0-3.11,0A135.12,135.12,0,0,0,55.57,232.56c0,.05,0,.09,0,.13l2.76-6.89,21.33-53.42a100.49,100.49,0,0,1,200.64,1l21.1,52.84,2.74,6.86.24-.56a134.94,134.94,0,0,0-28.94-148Z" transform="translate(-36 -36)" fill="#00aeef"/><path d="M318.72,141.24c-.05-.2-.11-.4-.17-.6l-.15-.54.15.54C318.61,140.84,318.67,141,318.72,141.24Z" transform="translate(-36 -36)" fill="#00aeef"/><path d="M320.84,149.88c0-.2-.08-.4-.13-.61s-.08-.38-.13-.58c.05.2.09.39.13.58S320.8,149.68,320.84,149.88Z" transform="translate(-36 -36)" fill="#00aeef"/><path d="M320,146.15l-.09-.36-.06-.24.06.24Z" transform="translate(-36 -36)" fill="#00aeef"/><path d="M315.58,131.38h0l-.29-.81c0-.09-.07-.17-.1-.26,0,.09.07.17.1.26C315.39,130.83,315.49,131.11,315.58,131.38Z" transform="translate(-36 -36)" fill="#00aeef"/><path d="M317.8,138.07a.57.57,0,0,1,0-.14c0,.06,0,.11,0,.16Z" transform="translate(-36 -36)" fill="#00aeef"/><path d="M323.24,165.09l-.09-.8-.06-.53.06.55Z" transform="translate(-36 -36)" fill="#00aeef"/><path d="M324,176.26c0-.4,0-.79,0-1.18,0-.21,0-.42,0-.63l0,.65Z" transform="translate(-36 -36)" fill="#00aeef"/><path d="M322.2,157.17l-.06-.35.06.37Z" transform="translate(-36 -36)" fill="#00aeef"/><path d="M296,94.67h0l-.37-.51.38.51Z" transform="translate(-36 -36)" fill="#00aeef"/><path d="M301.58,102.8l-.2-.31-.19-.29.19.29Z" transform="translate(-36 -36)" fill="#00aeef"/><path d="M269.75,67.39h0l0,0-.7-.55-.15-.12-.42-.33.57.45Z" transform="translate(-36 -36)" fill="#00aeef"/><path d="M268,66l-.33-.26-.15-.12.15.12Z" transform="translate(-36 -36)" fill="#00aeef"/><path d="M282.85,79.21a4,4,0,0,1-.29-.29l-.29-.29.29.3Z" transform="translate(-36 -36)" fill="#00aeef"/><path d="M300,100.33l.17.25-.18-.26-.48-.73h0Z" transform="translate(-36 -36)" fill="#00aeef"/><path d="M286.15,82.69l0,0c-.19-.22-.39-.43-.59-.65h0l.6.65Z" transform="translate(-36 -36)" fill="#00aeef"/><path d="M289,85.87l.45.53-.45-.52c-.18-.22-.37-.43-.55-.64l-.58-.66h0c.19.22.39.44.58.67Z" transform="translate(-36 -36)" fill="#00aeef"/><path d="M311.32,120.82l.12.27-.12-.27c-.12-.26-.25-.53-.37-.8l-.21-.46c.07.16.14.32.22.47Z" transform="translate(-36 -36)" fill="#00aeef"/><path d="M312.37,123.23l.33.77-.33-.79c-.12-.26-.23-.53-.34-.79l-.31-.69c.1.23.2.46.31.69Z" transform="translate(-36 -36)" fill="#00aeef"/><path d="M307.32,112.66l-.24-.44-.14-.25.15.27C307.16,112.38,307.24,112.52,307.32,112.66Z" transform="translate(-36 -36)" fill="#00aeef"/><path d="M260,60.24h0l-.74-.5-.17-.11-.52-.34.69.45Z" transform="translate(-36 -36)" fill="#00aeef"/><path d="M258.15,59l-.36-.23-.18-.11.18.11Z" transform="translate(-36 -36)" fill="#00aeef"/><path d="M230.71,257.12l2.69-.47,3.24-.55,1.46-3,1.22-2.45,2.62-.77,3.15-.93.78-2.15-52.34,3.88c-.53,3.83-6.1,5.81-11.11,5.87h-5.13c-5,0-10.64-2-11.18-5.87l-52-3.85.76,2.12,3.16.93,2.62.77,1.22,2.45,1.45,3,3.24.55,2.7.47,1.49,2.29,1.79,2.76,3.28.17,2.73.15,1.74,2.11,2.1,2.52,3.28-.2,2.73-.18,2,1.89,2.37,2.27,3.24-.59,2.68-.49,2.19,1.64,2.63,2,3.14-1,2.61-.8,2.37,1.38,2.84,1.65,3-1.32,2.51-1.1,2.51,1.1,3,1.32,2.84-1.65,2.37-1.38,2.61.8,3.14,1,2.63-2,2.19-1.64,2.68.49,3.24.59,2.37-2.27,2-1.88,2.73.17,3.28.2,2.09-2.52,1.75-2.11,2.73-.15,3.28-.17,1.79-2.76Z" transform="translate(-36 -36)" fill="#fff"/><path d="M180,84.55a94.24,94.24,0,0,0-91.94,73.52h7.09v-7.71h3.59V139.48h8v-8.59h16.56v8.66h3.38V123.27h.89l1-1,3.14-3h10.45l2.52,2.43,1.66,1.59h.88v9.6l.3.29,1.82,1.82v1.49h.84v-22.1h0v-1.46h11.65v8.77h3V131h3.51l0-17.79.31-8.5h.89V95.74h1.84v8.92h.89l.32,8.5h15l.31-8.5h.9V95.74h1.84v8.92h.89L192,115h0v16h3.95V108.11h8.55v3.64h10v18.57h4.25l.26-3.33H220l.72-9.34h13.77l.08,1,.07.91.57,7.41h1.08l.71,9.22h1v3.22h2.1v-3.6h1.69l5.34-4.16,1.15-.89,6.49,5.05h1.69v3.6h2.41v8.88h6.25v9.82H272A94.23,94.23,0,0,0,180,84.55Z" transform="translate(-36 -36)" fill="#fff"/><path d="M324,178.29l0-1.7a2.53,2.53,0,0,0,0-.28v-.05l0-1.16,0-.65c0-.36,0-.71,0-1.06a.31.31,0,0,0,0-.1v-.06l0-.62,0-.65,0-.48c0-.24,0-.47,0-.71l0-.36c0-.23,0-.47,0-.7s0-.34,0-.52,0-.16,0-.25c0-.35-.05-.69-.08-1s-.05-.52-.07-.78-.06-.69-.1-1c0-.09,0-.18,0-.28s0-.34-.05-.51a1.49,1.49,0,0,1,0-.21l-.09-.78-.06-.55,0-.27c0-.12,0-.24,0-.36s0-.41-.07-.61-.07-.55-.1-.83-.05-.33-.07-.49l-.06-.48c0-.12,0-.24-.05-.36l-.06-.46c-.05-.32-.09-.64-.14-1s-.07-.46-.1-.69l0-.15c0-.17-.05-.33-.08-.49s0-.29-.07-.43l-.06-.37c0-.16-.05-.33-.08-.5L322,156l-.09-.56a2,2,0,0,1,0-.24c0-.2-.08-.41-.11-.62s0-.17-.05-.26l-.12-.65c0-.25-.09-.51-.14-.77,0,0,0-.06,0-.09a2,2,0,0,0-.05-.24c0-.22-.08-.44-.13-.65s-.07-.37-.1-.55,0-.21-.07-.32c-.06-.3-.12-.6-.19-.9a2,2,0,0,0-.05-.24c0-.2-.08-.41-.13-.61s-.08-.38-.13-.58,0-.21-.07-.32-.1-.48-.16-.71l0-.13c0-.1,0-.2-.07-.31s-.09-.39-.14-.58-.07-.32-.11-.49l-.09-.36-.06-.24c-.05-.21-.1-.43-.16-.64l-.21-.84c-.05-.21-.11-.42-.16-.63a2.5,2.5,0,0,1-.07-.26c-.06-.23-.12-.46-.19-.69l0-.14-.24-.87c0-.08-.05-.16-.07-.24s-.11-.4-.17-.6l-.15-.54-.09-.31c-.08-.29-.17-.57-.25-.86s-.17-.56-.26-.84c0-.05,0-.1,0-.16l-.21-.69-.09-.28-.18-.56-.27-.84s0-.08,0-.13l-.24-.72-.27-.83c-.09-.26-.18-.52-.28-.79V133h0c0-.13-.09-.26-.13-.38l-.15-.43-.3-.84c-.09-.27-.19-.55-.29-.82,0-.09-.07-.17-.1-.26l-.21-.57c-.1-.27-.2-.54-.31-.82,0-.12-.09-.24-.14-.37s-.11-.3-.17-.44-.11-.27-.16-.41-.1-.28-.16-.42-.21-.53-.32-.8l-.33-.82-.26-.63a1.34,1.34,0,0,1-.07-.18c-.06-.13-.12-.27-.17-.4s-.12-.27-.17-.41l0,0-.33-.77-.34-.81c-.11-.23-.21-.46-.31-.69a.42.42,0,0,1,0-.1h0c-.07-.18-.15-.36-.23-.54l-.12-.27L311,120c-.08-.15-.15-.31-.22-.47l-.15-.33c-.12-.26-.25-.51-.37-.77l-.38-.81-.28-.57-.09-.19-.12-.24-.27-.56L309,116c-.11-.23-.23-.45-.34-.68l-.05-.09-.35-.7h0l0-.09c-.12-.22-.24-.44-.35-.67l-.41-.78c-.06-.11-.12-.22-.17-.33s-.16-.28-.23-.42l-.15-.27-.27-.52-.41-.75h0l-.09-.15-.34-.62-.42-.74-.43-.77-.06-.1c-.12-.21-.25-.42-.37-.64l-.16-.27-.29-.49,0,0c-.14-.23-.28-.46-.41-.69l-.15-.25-.31-.51c-.08-.14-.17-.28-.26-.42l-.18-.31-.36-.58-.11-.17h0l-.06-.1-.39-.62-.27-.43-.2-.31-.19-.29-.27-.42-.48-.75-.3-.45-.17-.25-.49-.74h0l-.06-.1-.39-.56,0,0-.46-.67,0-.06-.05-.07-.43-.62-.36-.51-.15-.21-.49-.68h0l-.52-.72h0l-.07-.09-.42-.57h0l-.38-.51-.15-.2-.39-.52-.11-.15-.25-.33c-.1-.12-.19-.25-.29-.38l-.15-.2-.36-.46-.36-.46-.19-.24a1,1,0,0,0-.08-.11l-.44-.55-.17-.22-.38-.48-.28-.33-.25-.32-.56-.69-.29-.34-.25-.3h0l-.57-.67h0l-.09-.11-.45-.53-.13-.15-.45-.53-.55-.62c-.19-.23-.39-.45-.58-.67h0l-.09-.12-.46-.51a.46.46,0,0,1-.07-.07l-.53-.59-.1-.11-.44-.49,0,0-.6-.65h0l-.27-.28-.31-.33-.6-.65-.58-.6-.44-.45-.18-.19-.3-.31-.29-.28-.29-.3-.33-.34-.12-.11c-.15-.16-.31-.31-.47-.47h0l-.5-.49a.8.8,0,0,0-.13-.13l-.6-.58-.64-.62-.39-.37-.21-.2-.51-.48a1.85,1.85,0,0,1-.14-.14h0l-.59-.55-.63-.57,0,0-.28-.25-.34-.32-.18-.15-.48-.44h0l-.12-.12-.5-.43-.06,0-.61-.54-.29-.25-.34-.29-.68-.58-.14-.12-.48-.41h0l-.22-.18-.46-.39-.11-.09-.54-.44-.69-.56-.14-.12-.49-.39h0l-.7-.56-.57-.45-.08-.06L268,66l-.33-.26-.15-.12-.51-.38-.25-.19-.47-.36-.61-.45-.06,0-.47-.35-.25-.18-.44-.32-.23-.17q-.31-.24-.63-.45l-.1-.08-.23-.16-.45-.32-.73-.51-.17-.12-.52-.36-.74-.5-.17-.12-.52-.35h0l-.75-.5-.69-.45h0l-.4-.26-.36-.23-.18-.11-.52-.34-.54-.34-.22-.14-.16-.1-.55-.34-.49-.3-.28-.17-.18-.11-.53-.32-.15-.09-.63-.38-.51-.29-.21-.13,0,0-.74-.43-.73-.42h0l-.75-.43-.44-.24-.29-.17-.8-.43-.19-.11-.54-.29-.39-.21-.41-.22-.7-.36,0,0-.7-.37-.1,0-.2-.11-.55-.27-.8-.41L244,51l-.55-.27-.4-.2-.41-.2-.45-.21-.3-.15h0l-.82-.39-.14-.06-.62-.29-.25-.12-.57-.26-.22-.1-.55-.24-.83-.37-.46-.2-.31-.14-.19-.08-.64-.28-.23-.09-.55-.23-.57-.24-.27-.11-.78-.32-.85-.34L232.8,46l-.55-.22-.85-.32-.79-.3-.86-.32-.79-.29-.86-.31-.8-.28-.87-.3-.8-.27-.87-.29-.81-.26-.87-.27-.82-.26-.87-.26-.82-.24-.88-.26-.83-.23-.88-.25-.83-.22-.89-.23-.83-.22-.9-.22-.83-.2-.9-.22-.84-.19-.9-.2-.28-.06-.57-.12-.55-.12-.35-.07-.43-.09-.42-.08-.82-.17-.09,0-.85-.16-.91-.17-.3,0-.56-.1L204,38l-.86-.15-.92-.14-.86-.13-.92-.14-.87-.12-.93-.12-.87-.11-.93-.11-.87-.1-.94-.1-.88-.09-.93-.09-.89-.08-.93-.07-.89-.07-.94-.06-.89-.06-.94,0-.9-.05-.94,0-.9,0-.95,0-.9,0-.95,0H180a144.62,144.62,0,0,0-25.49,2.25q-2.65.48-5.28,1a141.75,141.75,0,0,0-22,6.69c-1.09.43-2.17.87-3.25,1.33s-2.15.92-3.21,1.4Q118.34,49.8,116,51l-1.56.78c-1,.53-2.06,1.08-3.08,1.63q-3.06,1.66-6,3.47c-1,.6-2,1.21-2.94,1.84s-1.65,1.07-2.47,1.61l-.43.29-1.43,1q-2.85,2-5.6,4.08c-.85.66-1.7,1.32-2.53,2l-.19.14-.07.06-2.36,1.94-.23.2-.19.16c-.76.65-1.52,1.3-2.27,2l-.16.13-.44.41-.88.79-.67.61-.87.81-.66.62-.86.82-.65.63-.85.84c-.13.13-.27.26-.4.4l-.16.15c-.7.71-1.4,1.43-2.09,2.15l-.38.4c-.7.74-1.4,1.49-2.09,2.24l0,.06c-.39.42-.77.85-1.16,1.28v0c-.69.78-1.37,1.57-2,2.36l-.21.24-.15.18c-1,1.2-2,2.42-3,3.65l-.15.19-.27.35-1,1.36-.45.6c-.39.51-.77,1-1.15,1.54l-.21.29,0,.07c-.46.63-.92,1.27-1.37,1.91l-.35.49-1,1.47-.21.31-.21.32c-.33.49-.65,1-1,1.47-.12.17-.23.35-.35.53q-.64,1-1.26,2l0,.06-.17.27-1,1.7c-.13.21-.26.42-.38.63-.3.49-.58,1-.87,1.48-.08.13-.16.26-.23.39l-.18.32-.37.65c-.19.33-.38.67-.56,1l-.37.66L53,112l-.34.65-.59,1.11c-.09.19-.19.38-.29.57a.75.75,0,0,1-.07.12c-.25.51-.51,1-.76,1.52l0,0a144.34,144.34,0,0,0-2.25,123.26c.48,1.06,1,2.12,1.48,3.17.76,1.57,1.54,3.13,2.36,4.67a144.11,144.11,0,0,0,12,19.06c.69.92,1.39,1.84,2.1,2.74q1.61,2,3.28,4l1.13,1.32,0,0c.68.79,1.36,1.56,2.06,2.33l.19.21.17.19c.3.33.6.66.91,1l.49.53c.37.4.76.8,1.14,1.2l.27.28c.47.49,1,1,1.43,1.46l.4.41,1,1,.14.13.7.67.46.45.08.08.38.36,1,1,.57.53,1,.86.61.55.92.82.64.55.93.8.64.54,1,.81.61.5,1.08.88.52.41c1.07.85,2.15,1.69,3.25,2.51l.08.06.27.2,1.55,1.14.57.41,1.52,1.07.31.22.12.08,1.38.94.32.22c.57.38,1.14.76,1.72,1.13.15.11.31.21.47.31l1.26.8.65.41,1.1.68.25.15c.21.13.42.26.64.38l.64.39,1,.59.58.34.12.07.32.18,1.65.93.62.34,1.65.89.34.18.11.06c.69.36,1.38.72,2.08,1.07l.49.25,1.65.81.34.17.43.2.72.35,1,.45.72.33.33.15.48.21,1.15.51.78.34,1.15.49.77.32,1.2.49.74.3,1.31.5.52.21.13.05.66.24,1.09.4.73.27.7.25.27.09,1.27.44.72.24,1.47.48.52.17,2,.62.35.11,1.66.49.71.19,1.33.37.8.21,1.25.32.83.21,1.23.3.85.2,1.25.28.55.12.24.06,2.37.49.14,0,2.24.43.29.05.83.14.54.1,1.79.29.27,0,1.54.23.6.08,1.25.17.63.08,1.37.16.46.06,1.82.19.44,0,1.41.13.63.05,1.27.1.62.05,1.53.09.33,0c.61,0,1.23.07,1.85.09l.53,0,1.35.05.65,0,1.31,0h4.55l.59,0,1.48,0,.75,0,1.32,0,.82,0,1.24-.06.86-.06,1.18-.07.91-.07,1.14-.09.91-.09,1.12-.1.92-.1,1.11-.12h.11l1.53-.18.26,0c.6-.07,1.21-.15,1.81-.24h.07q1.2-.16,2.4-.36l.64-.1,1.83-.31.41-.07.29-.05,2.24-.43.14,0,2.37-.49.25-.06.42-.09,1.77-.41.66-.15,2.34-.58h0l1.79-.48.56-.15,1.08-.3.15,0,1.66-.49.35-.11,2-.62.52-.17,1.47-.48.72-.24,1.26-.44.28-.09.7-.25.73-.27,1.09-.4.66-.24.13-.05,1.17-.46.43-.16,0,0,1.68-.67.49-.21,1.22-.51.66-.28,1.05-.45.7-.32.66-.29.33-.15.72-.33,1-.46L242,310l.43-.2.34-.17,1.65-.81.49-.25L247,307.5l.1-.06.32-.17,1.67-.9.61-.34,1.67-.93.31-.18.12-.07.6-.35,1-.58.65-.39.63-.38.25-.15,1.1-.68.65-.41,1.26-.8.48-.31,1.71-1.13.33-.22,1.37-.94.12-.08.31-.22,1.52-1.07.57-.41,1.55-1.14.27-.2.08-.06c1.1-.82,2.18-1.66,3.26-2.51l.51-.41,1.08-.88.61-.5,1-.81.64-.54.93-.8.64-.55.92-.82.62-.55.94-.86.57-.53,1-1,.38-.36.08-.08.46-.45.7-.67.14-.13c.35-.35.7-.69,1-1,.14-.14.28-.27.41-.41.48-.48,1-1,1.43-1.46l.27-.28q.58-.6,1.14-1.2l.5-.53.9-1,.17-.19.19-.21c.7-.77,1.38-1.54,2.06-2.33l.05,0,1.12-1.32q1.68-2,3.28-4c.71-.9,1.41-1.82,2.1-2.74a144.11,144.11,0,0,0,12.05-19.06c.82-1.54,1.6-3.1,2.36-4.67.51-1.05,1-2.11,1.48-3.17A143.5,143.5,0,0,0,324,180h0C324,179.42,324,178.85,324,178.29ZM68.26,234.39l-.65,1.67-6.17-.45-4.09-.31,26.2-65.58L85,166.17H85l9.62.94-1,2.47C87.4,185.56,68.49,233.82,68.26,234.39Zm166.79-9.91a102.62,102.62,0,0,0-37.65,11A82.6,82.6,0,0,1,215.22,226a83.85,83.85,0,0,1,29.86-5.39h0A87.72,87.72,0,0,1,276,226l3.38,1.42L278,224c-.19-.49-14.31-36.54-22.55-57.8,2.17.08,4.21.22,6.07.44,3,7.56,21.47,54.78,26,66.32a272.41,272.41,0,0,0-37.85-3.11A183.14,183.14,0,0,0,214,232.69a113.27,113.27,0,0,0-13.93,3.52,101.45,101.45,0,0,1,35.13-9.82,1,1,0,0,0-.17-1.91Zm-28.49-.74a1,1,0,0,0-1.33-.27A138.42,138.42,0,0,0,192.44,233a121.61,121.61,0,0,1,27.9-21.24,139.35,139.35,0,0,1,24-10.79l1.43-.44-.39-1.44c-.11-.38-7.17-26.22-12.4-45.65,5.22,0,10.13.13,14.31.28,3.51,9.36,21.61,55.63,26.55,68.25a94.17,94.17,0,0,0-28.66-4.44h-.08a86.81,86.81,0,0,0-30.92,5.56,85.52,85.52,0,0,0-19.14,10.22c3.82-3.12,7.82-6,11.23-8.23A1,1,0,0,0,206.56,223.74Zm-53.11,1.33a143,143,0,0,1,11.77,8.67,85.47,85.47,0,0,0-50.69-16.22h-.09A94.29,94.29,0,0,0,85.78,222c4.94-12.62,23-58.89,26.55-68.25,4.25-.16,9.26-.33,14.57-.27-5.22,19.42-12.29,45.26-12.39,45.64l-.39,1.44,1.43.44a138.45,138.45,0,0,1,24,10.76,121,121,0,0,1,28.67,22,137,137,0,0,0-13.65-10.26,1,1,0,1,0-1.07,1.6Zm-28.93,1.32a101.61,101.61,0,0,1,35.32,9.91,113.73,113.73,0,0,0-14.21-3.61,179.89,179.89,0,0,0-33.29-2.83H110A272.38,272.38,0,0,0,72.14,233l26-66.32c1.86-.22,3.9-.36,6.08-.44C96,187.48,81.85,223.53,81.66,224l-1.34,3.41L83.7,226a87.45,87.45,0,0,1,30.75-5.4h.08A83.88,83.88,0,0,1,144.35,226a82.34,82.34,0,0,1,17.6,9.26,102.85,102.85,0,0,0-37.26-10.75,1,1,0,0,0-.17,1.91Zm-22.75-80.72v-2.13h2.29v2.13Zm0,5.41V149h2.29v2.13Zm0,5.41v-2.13h2.29v2.13Zm0,5.41v-2.13h2.29v2.13Zm7.7-19v-8.36a.41.41,0,0,1,.41-.41.41.41,0,0,1,.42.41v15.77a.42.42,0,0,1-.42.42.41.41,0,0,1-.41-.42v-7.41Zm43.47-24.72V116h2.28v2.13Zm0,9.3v-2.13h2.28v2.13Zm0,9.3v-2.14h2.28v2.14Zm4.38-14.42V120.2h2.29v2.14Zm0,9.29V129.5h2.29v2.13Zm0,9.3v-2.14h2.29v2.14Zm21.1-24.15a1.82,1.82,0,0,0,1.72,1.24,1.81,1.81,0,0,0,1.72-1.24h.31a2.2,2.2,0,0,1,2.2,2.19v.32h-8.43V119a2.2,2.2,0,0,1,2.2-2.19Zm6.9,9.83a.41.41,0,1,1,0,.82H174.18a.41.41,0,0,1,0-.82Zm-11.14,4.67h11.14a.41.41,0,0,1,.41.42.41.41,0,0,1-.41.41H174.18a.41.41,0,0,1-.41-.41A.41.41,0,0,1,174.18,131.28Zm0,4.68h11.14a.42.42,0,0,1,0,.83H174.18a.42.42,0,0,1,0-.83Zm0,4.68h11.14a.42.42,0,0,1,0,.83H174.18a.42.42,0,0,1,0-.83Zm0,4.68h11.14a.41.41,0,0,1,0,.82H174.18a.41.41,0,0,1,0-.82Zm0,4.68h11.14a.41.41,0,0,1,0,.82H174.18a.41.41,0,0,1,0-.82Zm0,4.67h11.14a.42.42,0,0,1,0,.83H174.18a.42.42,0,0,1,0-.83ZM131.37,130h11.14a.41.41,0,0,1,0,.82H131.37a.41.41,0,0,1,0-.82ZM131,127a.41.41,0,0,1,.41-.41h11.14a.41.41,0,1,1,0,.82H131.37A.41.41,0,0,1,131,127Zm.41,6.27h11.14a.41.41,0,0,1,0,.82H131.37a.41.41,0,1,1,0-.82Zm-10.5,9.59v7.41a.42.42,0,0,1-.42.42l-.09,0a.42.42,0,0,1-.32-.4V134.52a.42.42,0,0,1,.83,0Zm-3.53,0v7.41a.41.41,0,1,1-.82,0V134.52a.41.41,0,0,1,.82,0Zm-3.52,0v7.41a.42.42,0,0,1-.41.42.43.43,0,0,1-.31-.14.44.44,0,0,1-.11-.28V134.52a.42.42,0,0,1,.83,0ZM141,209a144.29,144.29,0,0,0-23.13-10.54c2.25-8.23,13.6-49.82,16.75-62.06C151.08,142,173,158.7,178.16,173.1c0,3.16,0,16.49.05,30.57,0,13.9.06,29.25.07,37.57C167.56,226,152.35,215.4,141,209Zm58.35-92.27v-2.13h2.28v2.13Zm0,9.3v-2.14h2.28v2.14Zm0,9.29v-2.13h2.28v2.13Zm9.35-18.59v-2.13H211v2.13Zm0,9.3v-2.14H211v2.14Zm0,9.29v-2.13H211v2.13Zm34,14.41v-9.58a.42.42,0,0,1,.83,0v9.58a.42.42,0,0,1-.83,0Zm3.53,0v-9.58a.41.41,0,0,1,.82,0v9.58a.41.41,0,0,1-.82,0Zm3.52,0v-9.58a.42.42,0,0,1,.83,0v9.58a.42.42,0,0,1-.83,0Zm10.94,9.58V157.2H263v2.13Zm0-5.41v-2.13H263v2.13Zm-6.59,2a.41.41,0,1,1-.82,0V140.17a.41.41,0,0,1,.82,0Zm-21.61-17.49h-2.34a.42.42,0,0,1-.24-.09.39.39,0,0,1-.14-.29.37.37,0,0,1,.14-.28.37.37,0,0,1,.24-.1h2.34a.38.38,0,0,1,0,.76ZM223,127.75h9.55a.39.39,0,0,1,.38.39.38.38,0,0,1-.38.38H223a.38.38,0,0,1-.38-.38A.39.39,0,0,1,223,127.75Zm-.38-4.58a.38.38,0,0,1,.38-.38h9.55a.38.38,0,0,1,0,.76H223A.38.38,0,0,1,222.58,123.17Zm.38,9.55h9.55a.39.39,0,0,1,0,.77H223a.39.39,0,0,1,0-.77Zm-24.54,65.46-.37-.07-3.46-.7-5.94-1.19-6,10.2c-.23-10.82-.71-33.8-.77-37.57,2.24-3.3,5.13-7.06,8.74-11.39.82-1,1.68-2,2.58-3.05,0,.44.07.92.14,1.44l5.13,42.22h0ZM204,120.92v-2.13h2.29v2.13Zm0,9.3v-2.14h2.29v2.14Zm0,9.29v-2.13h2.29v2.13Zm-22.36,74.81,8.58-14.51,11.91,2.38h0l-.3-2.22-2.26-18.66c5.16-4.15,12-8.89,18.58-11a1.28,1.28,0,0,0-.77-2.44c-6.44,2.05-13,6.38-18.18,10.41l-1.11-9.14c5.29-4.39,12.87-9.88,20.06-12.17a1.28,1.28,0,0,0-.77-2.44c-7.07,2.25-14.31,7.26-19.65,11.58l-1.3-10.7v0a12.77,12.77,0,0,1-.11-1.5c8.75-7.75,19.69-14.37,28.91-17.5,3.15,12.24,14.5,53.83,16.74,62.06A145.1,145.1,0,0,0,218.89,209c-11.33,6.38-26.54,17-37.27,32.22C181.63,235,181.65,224.86,181.67,214.32Zm83.47-56.19v-9.82h-6.25v-8.88h-2.41v-3.6h-1.69l-6.49-5.05-1.15.89-5.34,4.16h-1.69v3.6H238v-3.22h-1l-.71-9.22h-1.08l-.57-7.41-.07-.91-.08-1H220.7L220,127h-1.07l-.26,3.33H214.4V111.75h-10v-3.64h-8.55V131h-3.95V115h0l-.38-10.34h-.89V95.74h-1.84v8.92H188l-.31,8.5h-15l-.32-8.5h-.89V95.74h-1.84v8.92h-.89l-.31,8.5,0,17.79h-3.51v-9.27h-3v-8.77H150.21v1.46h0v22.1h-.84V135l-1.82-1.82-.3-.29v-9.6h-.88l-1.66-1.59-2.52-2.43H131.71l-3.14,3-1,1h-.89v16.28h-3.38v-8.66H106.7v8.59h-8v10.88H95.15v7.71H88.06a94.24,94.24,0,0,1,183.89.06ZM70.92,236.31A264.11,264.11,0,0,1,110,233c24.12-.25,40.93,3.21,52.5,7.58a304.47,304.47,0,0,0-47.11-5.22,1,1,0,1,0-.06,1.92c10.92.38,31.75,1.7,51.47,6.19l-79.45-5.9h0Zm156.51,25.86-3.28.17-2.73.15-1.75,2.11-2.09,2.52-3.28-.2-2.73-.17-2,1.88-2.37,2.27-3.24-.59-2.68-.49-2.19,1.64-2.63,2-3.14-1-2.61-.8-2.37,1.38-2.84,1.65-3-1.32-2.51-1.1-2.51,1.1-3,1.32-2.84-1.65-2.37-1.38-2.61.8-3.14,1-2.63-2-2.19-1.64-2.68.49-3.24.59-2.37-2.27-2-1.89-2.73.18-3.28.2-2.1-2.52-1.74-2.11-2.73-.15-3.28-.17-1.79-2.76-1.49-2.29-2.7-.47-3.24-.55-1.45-3-1.22-2.45-2.62-.77L114.9,249l-.76-2.12,52,3.85c.54,3.84,6.15,5.83,11.18,5.87h5.13c5-.06,10.58-2,11.11-5.87l52.34-3.88-.78,2.15-3.15.93-2.62.77-1.22,2.45-1.46,3-3.24.55-2.69.47-1.49,2.29Zm44.89-24.64h0L193,243.43c19.7-4.48,40.51-5.8,51.43-6.18a1,1,0,0,0-.07-1.92A302.81,302.81,0,0,0,197,240.61c16.84-6.4,37-7.8,52.61-7.65a266.9,266.9,0,0,1,39.15,3.35Zm25.92-1.92-6.2.46-.66-1.68c-.23-.6-21.43-54.67-26.37-67.28h0l9.63-.94h.07l1.42,3.55,26.2,65.58Zm6.19-3.05-.24.56-2.74-6.86-21.1-52.84a100.49,100.49,0,0,0-200.64-1L58.38,225.8l-2.76,6.89s0-.08,0-.13A135,135,0,0,1,180,45c1,0,2.07,0,3.11,0A135.12,135.12,0,0,1,304.43,232.56Z" transform="translate(-36 -36)"/><path d="M87.36,237.54l79.45,5.9c-19.72-4.49-40.55-5.81-51.47-6.19a1,1,0,1,1,.06-1.92,304.47,304.47,0,0,1,47.11,5.22c-11.57-4.37-28.38-7.83-52.5-7.58a264.11,264.11,0,0,0-39.09,3.34l16.44,1.22Zm17.73-2.39s1.71,0,4.59,0a1,1,0,0,1,0,1.92h0c-2.85,0-4.52,0-4.53,0h0a1,1,0,0,1,0-1.92Z" transform="translate(-36 -36)" fill="#fff"/><polygon points="48.97 130.17 47.55 133.72 49.04 130.18 48.97 130.17" fill="#ec008c"/><path d="M124.69,224.48A102.85,102.85,0,0,1,162,235.23a82.34,82.34,0,0,0-17.6-9.26,83.88,83.88,0,0,0-29.82-5.36h-.08A87.45,87.45,0,0,0,83.7,226l-3.38,1.42L81.66,224c.19-.49,14.3-36.54,22.55-57.8-2.18.08-4.22.22-6.08.44L72.14,233A272.38,272.38,0,0,1,110,229.87h2.36a179.89,179.89,0,0,1,33.29,2.83,113.73,113.73,0,0,1,14.21,3.61,101.61,101.61,0,0,0-35.32-9.91,1,1,0,0,1,.17-1.91Z" transform="translate(-36 -36)" fill="#fff"/><path d="M154.52,223.47a137,137,0,0,1,13.65,10.26,121,121,0,0,0-28.67-22,138.45,138.45,0,0,0-24-10.76l-1.43-.44.39-1.44c.1-.38,7.17-26.22,12.39-45.64-5.31-.06-10.32.11-14.57.27-3.51,9.36-21.61,55.63-26.55,68.25a94.29,94.29,0,0,1,28.66-4.44h.09a85.47,85.47,0,0,1,50.69,16.22,143,143,0,0,0-11.77-8.67,1,1,0,1,1,1.07-1.6Zm-3.09-.87a.95.95,0,0,1-1.32.3C148.2,221.69,147,221,147,221a1,1,0,0,1,1-1.66c.05,0,1.24.73,3.18,2A1,1,0,0,1,151.43,222.6Z" transform="translate(-36 -36)" fill="#fff"/><path d="M178.21,203.67c0-14.08-.05-27.41-.05-30.57C173,158.7,151.08,142,134.63,136.42c-3.15,12.24-14.5,53.83-16.75,62.06A144.29,144.29,0,0,1,141,209c11.34,6.38,26.55,17,37.27,32.22C178.27,232.92,178.24,217.57,178.21,203.67Zm-9.74-.17a1.25,1.25,0,0,1-.89.37,1.31,1.31,0,0,1-.92-.38c-.14-.15-14.15-14.33-26.93-18.4a1.28,1.28,0,0,1,.77-2.44c13.39,4.26,27.4,18.44,28,19A1.27,1.27,0,0,1,168.47,203.5Zm0-14.74a1.29,1.29,0,0,1-1.81,0c-.14-.14-14.15-14.33-26.93-18.39a1.28,1.28,0,0,1,.77-2.44c13.39,4.26,27.4,18.44,28,19A1.27,1.27,0,0,1,168.47,188.76Zm0-13.34a1.29,1.29,0,0,1-1.81,0c-.14-.14-14.15-14.33-26.93-18.39a1.28,1.28,0,0,1,.77-2.44c13.39,4.26,27.4,18.44,28,19A1.27,1.27,0,0,1,168.47,175.42Z" transform="translate(-36 -36)" fill="#fff"/><path d="M197,240.61a302.81,302.81,0,0,1,47.37-5.28,1,1,0,0,1,.07,1.92c-10.92.38-31.73,1.7-51.43,6.18l79.34-5.9h0l16.41-1.22A266.9,266.9,0,0,0,249.58,233C234,232.81,213.81,234.21,197,240.61Zm57.68-5.46a1,1,0,0,1,0,1.92h0s-1.67,0-4.53,0h0a1,1,0,0,1,0-1.92C253,235.13,254.63,235.15,254.65,235.15Z" transform="translate(-36 -36)" fill="#fff"/><polygon points="238.71 130.16 238.64 130.17 240.13 133.72 238.71 130.16" fill="#30c1b3"/><path d="M235.22,226.39a101.45,101.45,0,0,0-35.13,9.82A113.27,113.27,0,0,1,214,232.69a183.14,183.14,0,0,1,35.64-2.82A272.41,272.41,0,0,1,287.51,233c-4.53-11.54-23-58.76-26-66.32-1.86-.22-3.9-.36-6.07-.44,8.24,21.26,22.36,57.31,22.55,57.8l1.34,3.41L276,226a87.72,87.72,0,0,0-30.83-5.4h0A83.85,83.85,0,0,0,215.22,226a82.6,82.6,0,0,0-17.82,9.43,102.62,102.62,0,0,1,37.65-11,1,1,0,0,1,.17,1.91Z" transform="translate(-36 -36)" fill="#fff"/><path d="M195.06,233.3a85.52,85.52,0,0,1,19.14-10.22,86.81,86.81,0,0,1,30.92-5.56h.08A94.17,94.17,0,0,1,273.86,222c-4.94-12.62-23-58.89-26.55-68.25-4.18-.15-9.09-.32-14.31-.28,5.23,19.43,12.29,45.27,12.4,45.65l.39,1.44-1.43.44a139.35,139.35,0,0,0-24,10.79A121.61,121.61,0,0,0,192.44,233a138.42,138.42,0,0,1,12.79-9.52,1,1,0,0,1,1.33.27,1,1,0,0,1-.27,1.33C202.88,227.34,198.88,230.18,195.06,233.3Zm13.55-12c1.94-1.22,3.13-1.92,3.18-2a1,1,0,0,1,1,1.66s-1.22.71-3.13,1.92a.95.95,0,0,1-1.32-.3A1,1,0,0,1,208.61,221.27Z" transform="translate(-36 -36)" fill="#fff"/><path d="M218.89,209A145.1,145.1,0,0,1,242,198.48c-2.24-8.23-13.59-49.82-16.74-62.06-9.22,3.13-20.16,9.75-28.91,17.5a12.77,12.77,0,0,0,.11,1.5v0l1.3,10.7c5.34-4.32,12.58-9.33,19.65-11.58a1.28,1.28,0,0,1,.77,2.44c-7.19,2.29-14.77,7.78-20.06,12.17l1.11,9.14c5.17-4,11.74-8.36,18.18-10.41a1.28,1.28,0,0,1,.77,2.44c-6.54,2.08-13.42,6.82-18.58,11L201.89,200l.3,2.22h0l-11.91-2.38-8.58,14.51c0,10.54,0,20.69,0,26.92C192.35,226,207.56,215.4,218.89,209Zm-14-20a51.64,51.64,0,0,1,12.57-6.37,1.28,1.28,0,0,1,.77,2.44,49.34,49.34,0,0,0-11.93,6.06,1.21,1.21,0,0,1-.7.22,1.28,1.28,0,0,1-.71-2.35Z" transform="translate(-36 -36)" fill="#fff"/><path d="M205.58,191.37a1.21,1.21,0,0,0,.7-.22,49.34,49.34,0,0,1,11.93-6.06,1.28,1.28,0,0,0-.77-2.44A51.64,51.64,0,0,0,204.87,189a1.28,1.28,0,0,0,.71,2.35Z" transform="translate(-36 -36)"/><path d="M140.5,154.57a1.28,1.28,0,0,0-.77,2.44c12.78,4.06,26.79,18.25,26.93,18.39a1.28,1.28,0,1,0,1.83-1.79C167.9,173,153.89,158.83,140.5,154.57Z" transform="translate(-36 -36)"/><path d="M140.5,167.91a1.28,1.28,0,0,0-.77,2.44c12.78,4.06,26.79,18.25,26.93,18.39a1.28,1.28,0,1,0,1.83-1.79C167.9,186.35,153.89,172.17,140.5,167.91Z" transform="translate(-36 -36)"/><path d="M140.5,182.65a1.28,1.28,0,0,0-.77,2.44c12.78,4.07,26.79,18.25,26.93,18.4a1.31,1.31,0,0,0,.92.38,1.25,1.25,0,0,0,.89-.37,1.27,1.27,0,0,0,0-1.81C167.9,201.09,153.89,186.91,140.5,182.65Z" transform="translate(-36 -36)"/><polygon points="162.42 162.18 162.41 162.07 162.05 162.1 162.42 162.18" fill="#cc36ac"/><path d="M105.11,237.07h0s1.68,0,4.53,0h0a1,1,0,0,0,0-1.92c-2.88-.05-4.57,0-4.59,0a1,1,0,0,0,0,1.92Z" transform="translate(-36 -36)"/><path d="M151.13,221.27c-1.94-1.22-3.13-1.92-3.18-2a1,1,0,0,0-1,1.66s1.22.71,3.13,1.92a.95.95,0,0,0,1.32-.3A1,1,0,0,0,151.13,221.27Z" transform="translate(-36 -36)"/><path d="M249.11,236.15a1,1,0,0,0,1,.95h0c2.86,0,4.52,0,4.53,0h0a1,1,0,0,0,0-1.92s-1.7,0-4.59,0A1,1,0,0,0,249.11,236.15Z" transform="translate(-36 -36)"/><path d="M209.12,223.05a1,1,0,0,0,.51-.15c1.91-1.21,3.11-1.91,3.13-1.92a1,1,0,0,0-1-1.66s-1.24.73-3.18,2a1,1,0,0,0-.3,1.33A1,1,0,0,0,209.12,223.05Z" transform="translate(-36 -36)"/><path d="M193.31,155.85c-.07-.52-.12-1-.14-1.44-.9,1.05-1.76,2.06-2.58,3.05-3.61,4.33-6.5,8.09-8.74,11.39.06,3.77.54,26.75.77,37.57l6-10.2,5.94,1.19,3.46.7.36,0h0Z" transform="translate(-36 -36)" fill="#fff"/><path d="M274.64,166.17h0l-9.63.94h0c4.94,12.61,26.14,66.68,26.37,67.28l.66,1.68,6.2-.46,4.09-.31-26.2-65.58Z" transform="translate(-36 -36)" fill="#fff"/><path d="M94.66,167.11,85,166.17h0l-1.49,3.54L57.35,235.3l4.09.31,6.17.45.65-1.67c.23-.57,19.14-48.83,25.4-64.81Z" transform="translate(-36 -36)" fill="#fff"/><path d="M131.37,127.43h11.14a.41.41,0,1,0,0-.82H131.37a.41.41,0,0,0,0,.82Z" transform="translate(-36 -36)" fill="#fff"/><path d="M173.77,127a.41.41,0,0,0,.41.41h11.14a.41.41,0,1,0,0-.82H174.18A.41.41,0,0,0,173.77,127Z" transform="translate(-36 -36)" fill="#fff"/><path d="M174.18,136.79h11.14a.42.42,0,0,0,0-.83H174.18a.42.42,0,0,0,0,.83Z" transform="translate(-36 -36)" fill="#fff"/><path d="M174.18,132.11h11.14a.41.41,0,0,0,.41-.41.41.41,0,0,0-.41-.42H174.18a.41.41,0,0,0-.41.42A.41.41,0,0,0,174.18,132.11Z" transform="translate(-36 -36)" fill="#fff"/><path d="M174.18,141.47h11.14a.42.42,0,0,0,0-.83H174.18a.42.42,0,0,0,0,.83Z" transform="translate(-36 -36)" fill="#fff"/><path d="M174.18,150.82h11.14a.41.41,0,0,0,0-.82H174.18a.41.41,0,0,0,0,.82Z" transform="translate(-36 -36)" fill="#fff"/><path d="M174.18,155.5h11.14a.42.42,0,0,0,0-.83H174.18a.42.42,0,0,0,0,.83Z" transform="translate(-36 -36)" fill="#fff"/><path d="M174.18,146.14h11.14a.41.41,0,0,0,0-.82H174.18a.41.41,0,0,0,0,.82Z" transform="translate(-36 -36)" fill="#fff"/><path d="M131.37,130.77h11.14a.41.41,0,0,0,0-.82H131.37a.41.41,0,0,0,0,.82Z" transform="translate(-36 -36)" fill="#fff"/><path d="M131.37,134.11h11.14a.41.41,0,0,0,0-.82H131.37a.41.41,0,1,0,0,.82Z" transform="translate(-36 -36)" fill="#fff"/><path d="M223,123.55h9.55a.38.38,0,0,0,0-.76H223a.38.38,0,0,0,0,.76Z" transform="translate(-36 -36)" fill="#fff"/><path d="M223,128.52h9.55a.38.38,0,0,0,.38-.38.39.39,0,0,0-.38-.39H223a.39.39,0,0,0-.38.39A.38.38,0,0,0,223,128.52Z" transform="translate(-36 -36)" fill="#fff"/><path d="M223,133.49h9.55a.39.39,0,0,0,0-.77H223a.39.39,0,0,0,0,.77Z" transform="translate(-36 -36)" fill="#fff"/><path d="M232.51,137.69h-2.34a.37.37,0,0,0-.24.1.37.37,0,0,0-.14.28.39.39,0,0,0,.14.29.42.42,0,0,0,.24.09h2.34a.38.38,0,0,0,0-.76Z" transform="translate(-36 -36)" fill="#fff"/><path d="M116.93,134.11a.41.41,0,0,0-.41.41v15.77a.41.41,0,1,0,.82,0V134.52A.41.41,0,0,0,116.93,134.11Z" transform="translate(-36 -36)" fill="#fff"/><path d="M120.45,134.11a.41.41,0,0,0-.41.41v15.77a.42.42,0,0,0,.32.4l.09,0a.42.42,0,0,0,.42-.42V134.52A.41.41,0,0,0,120.45,134.11Z" transform="translate(-36 -36)" fill="#fff"/><path d="M113.41,134.11a.41.41,0,0,0-.42.41v15.77a.44.44,0,0,0,.11.28.43.43,0,0,0,.31.14.42.42,0,0,0,.41-.42V134.52A.41.41,0,0,0,113.41,134.11Z" transform="translate(-36 -36)" fill="#fff"/><path d="M109.88,150.71a.42.42,0,0,0,.42-.42V134.52a.41.41,0,0,0-.42-.41.41.41,0,0,0-.41.41v15.77A.41.41,0,0,0,109.88,150.71Z" transform="translate(-36 -36)" fill="#fff"/><rect x="116.94" y="80.03" width="2.28" height="2.13" fill="#fff"/><rect x="121.32" y="84.2" width="2.28" height="2.13" fill="#fff"/><rect x="116.94" y="89.33" width="2.28" height="2.13" fill="#fff"/><rect x="121.32" y="93.5" width="2.28" height="2.13" fill="#fff"/><rect x="116.94" y="98.62" width="2.28" height="2.13" fill="#fff"/><rect x="121.32" y="102.79" width="2.28" height="2.13" fill="#fff"/><rect x="163.36" y="78.62" width="2.28" height="2.13" fill="#fff"/><rect x="163.36" y="87.91" width="2.28" height="2.13" fill="#fff"/><rect x="163.36" y="97.21" width="2.28" height="2.13" fill="#fff"/><rect x="172.71" y="78.62" width="2.28" height="2.13" fill="#fff"/><rect x="172.71" y="87.91" width="2.28" height="2.13" fill="#fff"/><rect x="172.71" y="97.21" width="2.28" height="2.13" fill="#fff"/><rect x="168.03" y="82.79" width="2.28" height="2.13" fill="#fff"/><rect x="168.03" y="92.08" width="2.28" height="2.13" fill="#fff"/><rect x="168.03" y="101.38" width="2.28" height="2.13" fill="#fff"/><rect x="65.77" y="107.54" width="2.28" height="2.13" fill="#fff"/><rect x="65.77" y="112.95" width="2.28" height="2.13" fill="#fff"/><rect x="65.77" y="123.77" width="2.28" height="2.13" fill="#fff"/><rect x="65.77" y="118.36" width="2.28" height="2.13" fill="#fff"/><path d="M175.94,119v.32h8.43V119a2.2,2.2,0,0,0-2.2-2.19h-.31a1.81,1.81,0,0,1-1.72,1.24,1.82,1.82,0,0,1-1.72-1.24h-.28A2.2,2.2,0,0,0,175.94,119Z" transform="translate(-36 -36)" fill="#fff"/><path d="M250.6,149.75v-9.58a.42.42,0,0,0-.83,0v9.58a.42.42,0,0,0,.83,0Z" transform="translate(-36 -36)" fill="#fff"/><path d="M253.71,139.76a.41.41,0,0,0-.41.41v15.77a.41.41,0,1,0,.82,0V140.17A.41.41,0,0,0,253.71,139.76Z" transform="translate(-36 -36)" fill="#fff"/><path d="M247.07,149.75v-9.58a.41.41,0,0,0-.82,0v9.58a.41.41,0,0,0,.82,0Z" transform="translate(-36 -36)" fill="#fff"/><path d="M243.55,149.75v-9.58a.42.42,0,0,0-.83,0v9.58a.42.42,0,0,0,.83,0Z" transform="translate(-36 -36)" fill="#fff"/><rect x="224.71" y="115.79" width="2.28" height="2.13" fill="#fff"/><rect x="224.71" y="121.2" width="2.28" height="2.13" fill="#fff"/><polygon points="33.12 107 26.16 111.24 28.12 114.46 31.65 112.31 33.93 116.05 37.35 113.96 33.12 107" fill="#fff"/><rect x="61.6" y="152.38" width="8.15" height="8.15" transform="matrix(0.85, -0.52, 0.52, 0.85, -107.76, 20.95)" fill="#fff"/><polygon points="259.96 114.51 262 111.16 255.04 106.92 250.8 113.89 254.15 115.93 256.35 112.31 259.96 114.51" fill="#fff"/><rect x="290.25" y="152.38" width="8.15" height="8.15" transform="translate(-28.32 290.56) rotate(-58.68)" fill="#fff"/><path d="M267.05,96.69l0,0c1.05-1,.87-2.33-.33-3.52l-2.43-2.45-3.22,3.2,2.49,2.49C264.78,97.58,266.1,97.63,267.05,96.69Z" transform="translate(-36 -36)" fill="none"/><path d="M219.48,65v0c.32-1-.28-1.8-1.68-2.25l-3.26-1-1,3.18,3.05,1C218,66.32,219.12,66.15,219.48,65Z" transform="translate(-36 -36)" fill="none"/><path d="M236.64,73.33l0,0c.67-1.33.09-2.48-1.43-3.24l-3.08-1.55-2,4,3.14,1.58C234.77,74.89,236.05,74.52,236.64,73.33Z" transform="translate(-36 -36)" fill="none"/><polygon points="214.81 44.65 210.11 47.57 213.51 50.03 214.81 44.65" fill="none"/><path d="M218.39,71.31l0,0c.32-1-.24-1.87-1.93-2.42l-3.83-1.22-1.06,3.31,3.94,1.26C217,72.67,218,72.43,218.39,71.31Z" transform="translate(-36 -36)" fill="none"/><path d="M83.23,127.81,81.32,127a.54.54,0,0,0-.7.27l-3,6.7-11-5a.54.54,0,0,0-.71.26l-1,2.21a.53.53,0,0,0,.27.7l13.44,6a.53.53,0,0,0,.7-.27l4.22-9.38A.54.54,0,0,0,83.23,127.81Z" transform="translate(-36 -36)"/><rect x="77.85" y="111.65" width="3.47" height="15.79" rx="0.52" transform="translate(-99.78 92) rotate(-59.72)"/><path d="M89,117.6a.66.66,0,0,0,.92-.11l1.28-1.66a.65.65,0,0,0-.12-.92L83.5,109l7.93.61a.09.09,0,0,0,.08,0,.11.11,0,0,0,0-.08l-2.6-7.6,7.64,5.92a.65.65,0,0,0,.91-.12l1.32-1.7a.65.65,0,0,0-.12-.91L87.22,96.25a.66.66,0,0,0-.92.11l-1.4,1.8a1.49,1.49,0,0,0-.21,1.41l2.45,6.61-7-.73a1.45,1.45,0,0,0-1.3.56l-1.4,1.81a.64.64,0,0,0,.12.91Z" transform="translate(-36 -36)"/><rect x="96.46" y="87.62" width="3.47" height="15.79" rx="0.4" transform="translate(-74.79 60.91) rotate(-44.79)"/><path d="M99.32,87.16a.47.47,0,0,0,.64.07l3.4-2.72L110.93,94a.46.46,0,0,0,.64.07l2-1.6a.46.46,0,0,0,.07-.64l-7.57-9.49,3.4-2.71a.45.45,0,0,0,.07-.64l-1.43-1.79a.45.45,0,0,0-.64-.07L98,84.72a.47.47,0,0,0-.07.64Z" transform="translate(-36 -36)"/><path d="M120.23,87.05a.41.41,0,0,0,.56.14l9-5.38a.4.4,0,0,0,.14-.56l-1.19-2a.42.42,0,0,0-.56-.14l-6.42,3.82L115.56,72.4a.42.42,0,0,0-.56-.14l-2.28,1.36a.41.41,0,0,0-.15.56Z" transform="translate(-36 -36)"/><path d="M132.92,79.76a.46.46,0,0,0,.59.25l10.25-4.3a.46.46,0,0,0,.24-.6l-.84-2a.46.46,0,0,0-.6-.24L135.08,76l-1.28-3.06,6.44-2.7a.47.47,0,0,0,.25-.6l-.85-2a.46.46,0,0,0-.59-.25l-6.45,2.71-1.24-3L138.74,64a.46.46,0,0,0,.25-.6l-.84-2a.46.46,0,0,0-.6-.24L127.4,65.44a.46.46,0,0,0-.24.6Z" transform="translate(-36 -36)"/><path d="M157.57,67v0c-.69-2.66-2.73-3.32-6-3.32-2.82,0-3.56-.15-3.82-1.15v0c-.19-.74.33-1.5,1.62-1.84a7,7,0,0,1,3.87.3.55.55,0,0,0,.68-.33l.72-2a.53.53,0,0,0-.31-.69,9.14,9.14,0,0,0-5.69-.26c-3.12.81-4.87,3.23-4.15,6v0c.79,3,3,3.37,6.28,3.36,2.73,0,3.36.29,3.59,1.14v0c.23.9-.46,1.66-1.83,2a7,7,0,0,1-4.57-.46.54.54,0,0,0-.7.27L146.31,72a.53.53,0,0,0,.27.72,10,10,0,0,0,6.62.52C156.49,72.36,158.36,70.06,157.57,67Z" transform="translate(-36 -36)"/><path d="M172.9,64.94c-.32-2.73-2.25-3.66-5.53-4.12-2.8-.37-3.51-.63-3.63-1.66v0c-.09-.76.53-1.45,1.85-1.61a6.93,6.93,0,0,1,3.69.78.68.68,0,0,0,.88-.29l.87-1.66a.67.67,0,0,0-.28-.91,9.18,9.18,0,0,0-5.48-1c-3.2.38-5.26,2.53-4.93,5.38v0c.37,3.12,2.51,3.75,5.77,4.18,2.7.36,3.29.75,3.39,1.62v0c.1.92-.68,1.58-2.09,1.74a6.87,6.87,0,0,1-4.37-1,.68.68,0,0,0-.9.22l-1,1.57a.68.68,0,0,0,.22,1,10.1,10.1,0,0,0,6.36,1.34c3.38-.4,5.55-2.43,5.18-5.54Z" transform="translate(-36 -36)"/><path d="M195.83,67.34l-7.36-.63,1.05-12.1a.49.49,0,0,0-.45-.53l-2.48-.22a.49.49,0,0,0-.53.45l-1.28,14.76a.49.49,0,0,0,.44.53l10.34.89a.48.48,0,0,0,.52-.44l.19-2.18A.48.48,0,0,0,195.83,67.34Z" transform="translate(-36 -36)"/><rect x="194.79" y="62.1" width="15.79" height="3.47" rx="0.68" transform="translate(65.33 214.61) rotate(-78.99)"/><path d="M208.35,73.1l6.25,2c3.4,1.09,6.07.42,7-2.33v0c.65-2-.1-3.37-1.63-4.6a3.64,3.64,0,0,0,3-2.61l0,0a3.62,3.62,0,0,0-.22-2.89A5.71,5.71,0,0,0,219.23,60l-6.08-1.94a.94.94,0,0,0-1.19.61l-4.23,13.24A1,1,0,0,0,208.35,73.1Zm6.2-11.4,3.26,1c1.4.45,2,1.26,1.68,2.25v0c-.36,1.12-1.44,1.29-2.9.83l-3.05-1Zm-1.9,5.93,3.83,1.22c1.69.55,2.25,1.41,1.93,2.42l0,0c-.36,1.12-1.4,1.36-2.86.89l-3.94-1.26Z" transform="translate(-36 -36)"/><path d="M239.87,74.75l0,0a5,5,0,0,0,.41-3.84,6.28,6.28,0,0,0-3.4-3.49l-5.92-3a.6.6,0,0,0-.8.26l-6.55,13.06a.59.59,0,0,0,.27.79l2,1a.6.6,0,0,0,.8-.27l2-4,2.4,1.2,0,0,.72,5.72a.58.58,0,0,0,.32.46l2.34,1.17a.59.59,0,0,0,.86-.61l-.77-5.65A4.91,4.91,0,0,0,239.87,74.75Zm-6.61-.62-3.14-1.58,2-4,3.08,1.55c1.52.76,2.1,1.91,1.43,3.24l0,0C236.05,74.52,234.77,74.89,233.26,74.13Z" transform="translate(-36 -36)"/><path d="M237.92,85.8l1.81,1.31a.61.61,0,0,0,.67,0l2.9-1.81,5.41,3.91-.81,3.33a.6.6,0,0,0,.23.63L250,94.56a.6.6,0,0,0,.94-.35l3.53-15.47a.79.79,0,0,0-.31-.81l-1.75-1.27a.79.79,0,0,0-.87,0L238,84.8A.6.6,0,0,0,237.92,85.8Zm12.89-5.15L249.51,86l-3.4-2.46Z" transform="translate(-36 -36)"/><path d="M253.27,97.53l1.7,1.71a.53.53,0,0,0,.75,0l3.21-3.19,1.89,1.9,0,0-1.14,5.68a.53.53,0,0,0,.15.48l1.95,2a.53.53,0,0,0,.9-.27l1.09-5.72a4.92,4.92,0,0,0,5.86-1.06l0,0a4.92,4.92,0,0,0,1.6-3.51,6.25,6.25,0,0,0-2.11-4.39l-4.55-4.57a.77.77,0,0,0-1.08,0L253.27,96.78A.53.53,0,0,0,253.27,97.53Zm11-6.84,2.43,2.45c1.2,1.19,1.38,2.47.33,3.52l0,0c-.95.94-2.27.89-3.46-.31l-2.49-2.49Z" transform="translate(-36 -36)"/><rect x="263.99" y="104.42" width="15.79" height="3.47" rx="0.59" transform="translate(-43.38 155.03) rotate(-38.23)"/><path d="M274.06,117.39l2.82-1.75,3.64,5.85a.54.54,0,0,0,.76.17l1.69-1a.54.54,0,0,0,.17-.76L279.5,114l2.72-1.69L286.4,119a.55.55,0,0,0,.76.18l1.69-1a.54.54,0,0,0,.17-.76l-5.71-9.18a.55.55,0,0,0-.76-.17l-12.47,7.76a.54.54,0,0,0-.17.76l5.77,9.27a.55.55,0,0,0,.76.18l1.68-1.05a.55.55,0,0,0,.18-.76Z" transform="translate(-36 -36)"/><path d="M294.33,127.78c-1.3-3-4-4.29-6.58-3.14l0,0c-2.87,1.27-2.85,3.5-2.31,6.74.44,2.69.25,3.37-.56,3.72l0,0c-.84.37-1.71-.19-2.28-1.49a7,7,0,0,1-.29-4.53.61.61,0,0,0-.42-.72l-1.94-.56a.6.6,0,0,0-.74.43,10,10,0,0,0,.56,6.56c1.37,3.12,3.94,4.6,6.81,3.33l.05,0c2.51-1.11,2.84-3.22,2.31-6.49-.46-2.78-.42-3.54.53-4h0c.7-.31,1.54.08,2.08,1.3a7,7,0,0,1,.32,3.86.56.56,0,0,0,.44.63l2.07.39a.54.54,0,0,0,.64-.42A9.15,9.15,0,0,0,294.33,127.78Z" transform="translate(-36 -36)"/><path d="M110.28,261.84a1.44,1.44,0,0,0-.47-1,1.49,1.49,0,0,0-2.09.08l-6,6.54c-.68.74-1.34,1.51-2,2.34l6-11.1a1.58,1.58,0,0,0-.32-1.91l-.79-.73a1.39,1.39,0,0,0-1-.38,1.43,1.43,0,0,0-1,.45L91.18,268.51a1.44,1.44,0,0,0-.39,1.06,1.48,1.48,0,0,0,.47,1,1.49,1.49,0,0,0,2.09-.08l6.55-7.1a32.13,32.13,0,0,0,2.07-2.48l-6.51,11.92a1.58,1.58,0,0,0,.32,1.91l.66.61a1.4,1.4,0,0,0,2-.08l11.47-12.4A1.44,1.44,0,0,0,110.28,261.84Z" transform="translate(-36 -36)" fill="#fff"/><path d="M119.27,268.06a1.78,1.78,0,0,0-2.24.17l-12.36,11.68a1.39,1.39,0,0,0-.44,1.15,1.42,1.42,0,0,0,.61,1.07,1.44,1.44,0,0,0,1.81-.16l1.82-1.77,3.24,2.23-1,2.33a1.47,1.47,0,0,0,1.36,2.05,1.52,1.52,0,0,0,.42-.06,1.46,1.46,0,0,0,.94-.86l6.46-15.68A1.79,1.79,0,0,0,119.27,268.06Zm-3.3,4.73L112.82,280l-2.46-1.7Z" transform="translate(-36 -36)" fill="#fff"/><path d="M132.19,275.35a5.29,5.29,0,0,0-3-.64c-1.45.13-2.41.91-3.3,2.69-1,2-1.07,2.89-.29,5.23l1.32,3.94c.54,1.65.53,2.33-.07,3.51a2.37,2.37,0,0,1-1.22,1.24,2.09,2.09,0,0,1-1.65-.21,2.11,2.11,0,0,1-1.23-1.28,2.8,2.8,0,0,1,.4-2l.35-.7a1.42,1.42,0,0,0,.08-1,1.4,1.4,0,0,0-.69-.8,1.37,1.37,0,0,0-1.05-.07,1.35,1.35,0,0,0-.8.68l-.47.93a4.87,4.87,0,0,0-.4,3.8,5.1,5.1,0,0,0,2.66,2.81,5.78,5.78,0,0,0,2.57.68,4.16,4.16,0,0,0,1.27-.2,5,5,0,0,0,2.79-2.67,5.57,5.57,0,0,0,.46-4.66l-1.81-5.49a2.81,2.81,0,0,1,.36-2.47c.64-1.26,1.34-1.55,2.43-1s1.18,1.29.56,2.53l-.24.47a1.38,1.38,0,1,0,2.46,1.24l.31-.62a4.56,4.56,0,0,0,.55-3.46A4.23,4.23,0,0,0,132.19,275.35Z" transform="translate(-36 -36)" fill="#fff"/><path d="M149.8,282.63a1.46,1.46,0,0,0-1.12.09,1.43,1.43,0,0,0-.74.86l-2.07,6.3-3.82-1.26,2.07-6.3a1.48,1.48,0,0,0-1-1.86,1.46,1.46,0,0,0-1.12.09,1.41,1.41,0,0,0-.74.85l-5.24,16a1.47,1.47,0,0,0,2.07,1.77,1.43,1.43,0,0,0,.73-.85l2.33-7.1,3.83,1.25-2.33,7.1a1.49,1.49,0,0,0,1.4,1.94,1.57,1.57,0,0,0,.67-.16,1.45,1.45,0,0,0,.73-.86l5.25-16a1.48,1.48,0,0,0-.09-1.13A1.5,1.5,0,0,0,149.8,282.63Z" transform="translate(-36 -36)" fill="#fff"/><path d="M166,286a1.46,1.46,0,0,0-1.65,1L160,300.35l0-14a1.5,1.5,0,1,0-3,0l.38,16.51a2.17,2.17,0,0,0,4.22.67L167.15,288a1.48,1.48,0,0,0-1.16-2Z" transform="translate(-36 -36)" fill="#fff"/><path d="M175.43,286.76a1.53,1.53,0,0,0-1.06.39,1.49,1.49,0,0,0-.48,1l-.68,16.8a1.47,1.47,0,0,0,1.41,1.54h.06a1.48,1.48,0,0,0,1.48-1.42l.68-16.8a1.43,1.43,0,0,0-.39-1.06A1.47,1.47,0,0,0,175.43,286.76Z" transform="translate(-36 -36)" fill="#fff"/><path d="M193.3,303.16l-4.8.37-1.2-15.44a1.47,1.47,0,0,0-1.59-1.36,1.48,1.48,0,0,0-1.36,1.59l1.29,16.62a1.7,1.7,0,0,0,.56,1.11,1.65,1.65,0,0,0,1.06.39h.13l6.13-.47a1.4,1.4,0,0,0-.22-2.8Z" transform="translate(-36 -36)" fill="#fff"/><path d="M209.94,300.21l-4.71,1-3.29-15.13a1.47,1.47,0,0,0-2.88.62l3.51,16.19a1.69,1.69,0,0,0,.75,1.09,1.78,1.78,0,0,0,.94.28,2.33,2.33,0,0,0,.37,0l5.9-1.28a1.41,1.41,0,0,0-.59-2.75Z" transform="translate(-36 -36)" fill="#fff"/><path d="M225.82,295.19l-5,1.82-2.27-6.26,3.7-1.34a1.31,1.31,0,0,0,.11-2.41,1.29,1.29,0,0,0-1,0l-3.7,1.34-1.77-4.87,4.49-1.63a1.32,1.32,0,0,0,.74-.67,1.29,1.29,0,0,0,0-1,1.31,1.31,0,0,0-1.67-.78l-5.78,2.1a1.57,1.57,0,0,0-.94,2l5.66,15.62a1.59,1.59,0,0,0,.82.89,1.55,1.55,0,0,0,.66.15,1.65,1.65,0,0,0,.54-.09l6.3-2.29a1.33,1.33,0,0,0,.77-.7,1.34,1.34,0,0,0,.05-1A1.37,1.37,0,0,0,225.82,295.19Z" transform="translate(-36 -36)" fill="#fff"/><path d="M237.45,290.5a1.48,1.48,0,0,0-2-.65,1.46,1.46,0,0,0-.74.86,1.48,1.48,0,0,0,.09,1.13l.33.66a1.36,1.36,0,0,0,.78.67,1.41,1.41,0,0,0,1-.06l.18.35c.42.82.41,1.22,0,1.78a.81.81,0,0,0,.52,1.3h.11a.82.82,0,0,0,.6-.27c.93-1,.92-2.28,0-4.13Z" transform="translate(-36 -36)" fill="#fff"/><path d="M243,269.75l1.94-1.33a1.4,1.4,0,0,0-.53-2.54,1.4,1.4,0,0,0-1,.22L237,270.43a1.4,1.4,0,1,0,1.58,2.31l1.95-1.33,8.74,12.79a1.47,1.47,0,0,0,2.67-.56,1.5,1.5,0,0,0-.23-1.11Z" transform="translate(-36 -36)" fill="#fff"/><path d="M269.2,269.39a1.29,1.29,0,0,0-.36-1L257.32,256a1.48,1.48,0,0,0-1-.47,1.48,1.48,0,0,0-1.14,2.48l6.06,6.53c.68.74,1.4,1.45,2.18,2.16l-10.63-6.9a1.55,1.55,0,0,0-1.88.16l-.85.79a1.36,1.36,0,0,0-.07,1.92l11.52,12.42a1.48,1.48,0,0,0,2.17-2L257.08,266c-.65-.7-1.38-1.41-2.32-2.25l11.41,7.42a1.54,1.54,0,0,0,1.88-.17h0l.72-.66A1.36,1.36,0,0,0,269.2,269.39Z" transform="translate(-36 -36)" fill="#fff"/></svg>